<svg width="50" height="50" viewBox="0 0 50 50" fill="none" xmlns="http://www.w3.org/2000/svg">
<path d="M24.8203 3.2812C13.7266 3.2812 14.4281 8.07808 14.4281 8.07808V13.0625H24.9781V14.625H10.2266C10.2266 14.625 3.125 13.75 3.125 25.0078C3.125 36.2656 9.39531 35.8078 9.39531 35.8078H13.0156V30.5562C13.0156 30.5562 12.8125 24.2859 19.1094 24.2859H29.675C29.675 24.2859 35.5687 24.3796 35.5687 18.5796V9.06245C35.5687 9.06245 36.4625 3.26245 24.8781 3.26245L24.8203 3.2812ZM18.9891 6.62026C19.3641 6.6108 19.7336 6.71277 20.0507 6.91329C20.3678 7.1138 20.6183 7.40385 20.7706 7.74675C20.9228 8.08964 20.97 8.46999 20.9061 8.83969C20.8421 9.20939 20.67 9.55183 20.4115 9.8237C20.1529 10.0956 19.8196 10.2847 19.4536 10.3671C19.0875 10.4495 18.7053 10.4215 18.3552 10.2867C18.0051 10.1518 17.7028 9.9162 17.4866 9.60957C17.2704 9.30293 17.15 8.93908 17.1406 8.56401V8.53276C17.1406 8.02968 17.3405 7.5472 17.6962 7.19147C18.0519 6.83574 18.5344 6.63589 19.0375 6.63589L18.9891 6.62026Z" fill="url(#paint0_linear)"/>
<path d="M25.1328 46.7345C36.2265 46.7345 35.525 41.922 35.525 41.922V36.9533H24.9765V35.3908H39.7734C39.7734 35.3908 46.875 36.1845 46.875 24.9924C46.875 13.8002 40.6047 14.1924 40.6047 14.1924H36.9375V19.3752C36.9375 19.3752 37.1406 25.6455 30.8437 25.6455H20.2734C20.2734 25.6455 14.375 25.5564 14.375 31.3564V40.9377C14.375 40.9377 13.4812 46.7377 25.0656 46.7377H25.1281L25.1328 46.7345ZM30.964 43.3799C30.589 43.3893 30.2195 43.2873 29.9024 43.0868C29.5853 42.8863 29.3348 42.5963 29.1825 42.2534C29.0303 41.9105 28.9831 41.5301 29.0471 41.1604C29.111 40.7907 29.2831 40.4483 29.5416 40.1764C29.8002 39.9045 30.1335 39.7154 30.4996 39.633C30.8656 39.5506 31.2478 39.5786 31.5979 39.7134C31.948 39.8483 32.2503 40.0839 32.4665 40.3905C32.6827 40.6972 32.8031 41.061 32.8125 41.4361V41.483C32.8125 41.9861 32.6126 42.4685 32.2569 42.8243C31.9012 43.18 31.4187 43.3799 30.9156 43.3799H30.9625H30.964Z" fill="url(#paint1_linear)"/>
<defs>
<linearGradient id="paint0_linear" x1="7.44869" y1="7.53573" x2="28.2091" y2="28.2491" gradientUnits="userSpaceOnUse">
<stop stop-color="#387EB8"/>
<stop offset="1" stop-color="#366994"/>
</linearGradient>
<linearGradient id="paint1_linear" x1="19.7304" y1="21.0292" x2="43.4495" y2="41.7363" gradientUnits="userSpaceOnUse">
<stop stop-color="#FFE052"/>
<stop offset="1" stop-color="#FFC331"/>
</linearGradient>
</defs>
</svg>
