<svg width="50" height="50" viewBox="0 0 50 50" fill="none" xmlns="http://www.w3.org/2000/svg">
<g clip-path="url(#clip0)">
<path d="M50 46.1706V3.82935C50 2.09224 48.8431 0.626221 47.2584 0.157471L45.4586 1.23442L25.4849 22.5307L24.8588 24.4879L24.493 26.3668L30.7215 49.6442L31.6849 49.9997H46.1707C48.2855 49.9997 50 48.2854 50 46.1706Z" fill="#EA6618"/>
<path d="M0 3.8293V46.1705C0 47.4801 0.657617 48.6354 1.66016 49.3258L2.88809 48.7379L24.0299 26.1023L24.8588 24.4881L24.8898 22.9275L19.1359 1.03633L18.2643 0H3.8293C1.71445 0 0 1.71445 0 3.8293Z" fill="#D65813"/>
<path d="M24.8588 24.4885L47.2584 0.157617C46.9052 0.0530026 46.5388 -8.39631e-05 46.1705 9.96782e-08H18.2646L24.859 24.4883L24.8588 24.4885Z" fill="#E05E11"/>
<path d="M3.82928 50H31.6851L24.8588 24.488L1.65994 49.3259C2.29772 49.7659 3.05446 50.001 3.82928 50Z" fill="#DE5C16"/>
<path d="M18.5387 18.9512H21.317C22.424 23.1281 23.684 26.7934 25.0896 30.1006C26.6818 26.3799 27.8488 22.7119 28.8367 18.951H31.4621C30.2863 23.624 28.3629 28.3338 26.1629 33.1951H23.8406C21.7273 28.5885 19.9285 23.852 18.5387 18.951V18.9512ZM9.3746 11.7139H15.5523V38.2055H9.34726V36.1633H13.1504V13.7016H9.3746V11.7139ZM40.6576 13.7016H36.8818V36.1633H40.6846V38.2055H34.4797V11.7139H40.6574V13.7016H40.6576Z" fill="white"/>
</g>
<defs>
<clipPath id="clip0">
<rect width="50" height="50" fill="white"/>
</clipPath>
</defs>
</svg>
