<svg width="52" height="49" viewBox="0 0 52 49" fill="none" xmlns="http://www.w3.org/2000/svg">
<g clip-path="url(#clip0)">
<path d="M36.0297 34.0857C37.9483 33.8893 39.4039 32.2538 39.3377 30.291C39.2717 28.3284 37.6175 26.7582 35.6326 26.7582H35.5004C33.4491 26.8237 31.8613 28.5246 31.9275 30.5527C31.9937 31.5341 32.3906 32.3846 32.9861 32.9734C30.7366 37.3569 27.2961 40.5626 22.1355 43.2449C18.6288 45.0768 14.99 45.7311 11.3511 45.2732C8.37375 44.8806 6.05806 43.5722 4.60227 41.413C2.4852 38.2073 2.28678 34.7398 4.0732 31.2724C5.33037 28.7863 7.31501 26.9544 8.57217 26.0385C8.30754 25.188 7.91049 23.7487 7.71206 22.7021C-1.88155 29.5715 -0.889024 38.8616 2.02214 43.2449C4.20542 46.5163 8.63838 48.5443 13.5344 48.5443C14.8576 48.5443 16.1807 48.4134 17.5041 48.0865C25.973 46.4508 32.3908 41.4785 36.0297 34.0857ZM47.6743 25.9732C42.6459 20.1504 35.2358 16.9448 26.7669 16.9448H25.7083C25.1129 15.7672 23.8557 14.9819 22.4663 14.9819H22.3339C20.2831 15.0474 18.6953 16.7484 18.7613 18.7766C18.8275 20.7393 20.4815 22.3095 22.4663 22.3095H22.5985C24.0541 22.244 25.3113 21.3281 25.8406 20.085H27.0315C32.06 20.085 36.8236 21.5243 41.1243 24.3375C44.4323 26.4965 46.8142 29.3098 48.1374 32.7117C49.2621 35.4595 49.1959 38.1419 48.005 40.4318C46.1525 43.8992 43.0429 45.7965 38.9408 45.7965C36.2943 45.7965 33.7802 45.0113 32.4568 44.4225C31.7291 45.0768 30.4057 46.1235 29.4794 46.7779C32.3246 48.0863 35.2358 48.806 38.0145 48.806C44.3661 48.806 49.0637 45.3385 50.8501 41.8711C52.7688 38.0764 52.6364 31.5341 47.6743 25.9732ZM14.0637 35.1977C14.1299 37.1605 15.7839 38.7305 17.7687 38.7305H17.9012C19.9522 38.6652 21.54 36.9641 21.4738 34.936C21.4078 32.9732 19.7536 31.4032 17.7687 31.4032H17.6365C17.5041 31.4032 17.3055 31.4032 17.1735 31.4684C14.4607 27.0197 13.336 22.1785 13.733 16.9446C13.9975 13.0191 15.3208 9.61705 17.6365 6.80377C19.5552 4.38309 23.2602 3.20548 25.7746 3.14022C32.7876 3.00928 35.7648 11.6451 35.9634 15.1127C36.8236 15.3089 38.2791 15.767 39.2717 16.0941C38.4776 5.49563 31.8613 0 25.5099 0C19.5552 0 14.0637 4.25256 11.8802 10.5332C8.83681 18.9074 10.8217 26.9544 14.5267 33.3005C14.1961 33.7584 13.9975 34.4781 14.0637 35.1979V35.1977Z" fill="#764ABC"/>
</g>
<defs>
<clipPath id="clip0">
<rect width="52" height="49" fill="white"/>
</clipPath>
</defs>
</svg>
