<svg width="55" height="49" viewBox="0 0 55 49" fill="none" xmlns="http://www.w3.org/2000/svg">
<path d="M45.2181 15.8656C44.6329 15.6648 44.0427 15.4787 43.4481 15.3075C43.548 14.8992 43.64 14.4958 43.7216 14.0995C45.0616 7.59174 44.1856 2.34895 41.1935 0.622778C38.3248 -1.03205 33.6332 0.693484 28.895 4.81916C28.428 5.22649 27.9714 5.64556 27.5256 6.07596C27.2271 5.78976 26.9234 5.5091 26.6146 5.23415C21.6487 0.822862 16.6712 -1.03634 13.6824 0.694774C10.8162 2.35476 9.96749 7.28334 11.1738 13.4509C11.2939 14.0617 11.4294 14.6694 11.5803 15.2733C10.8757 15.4736 10.1958 15.6868 9.54518 15.9138C3.72306 17.9447 0.00496483 21.1273 0.00496483 24.4286C0.00496483 27.8382 3.99651 31.2581 10.0605 33.3318C10.5521 33.4992 11.0478 33.6544 11.5472 33.7971C11.385 34.4475 11.241 35.1024 11.1154 35.7609C9.96534 41.8215 10.8634 46.6336 13.7219 48.283C16.6742 49.9864 21.6294 48.2357 26.4541 44.0159C26.8454 43.6729 27.228 43.3201 27.6016 42.9579C28.0844 43.424 28.5801 43.8765 29.0881 44.3149C33.7619 48.3385 38.3776 49.9632 41.2333 48.3092C44.1828 46.6009 45.1415 41.4314 43.8969 35.142C43.7988 34.6493 43.6889 34.159 43.5671 33.6716C43.9151 33.5684 44.2567 33.4622 44.5896 33.3518C50.8938 31.2622 54.9955 27.8838 54.9955 24.4286C54.9955 21.1153 51.1573 17.9112 45.2181 15.8656ZM43.8509 31.121C43.5502 31.2205 43.2417 31.3165 42.9272 31.41C42.2313 29.2057 41.2921 26.8618 40.1427 24.44C41.2395 22.076 42.1425 19.762 42.819 17.572C43.3816 17.735 43.9274 17.9067 44.4536 18.0878C49.5424 19.8407 52.6464 22.4319 52.6464 24.4286C52.6464 26.5554 49.2941 29.3164 43.8509 31.121ZM41.5924 35.5985C42.1428 38.3794 42.2212 40.8939 41.8566 42.8597C41.5293 44.6261 40.8707 45.8036 40.0561 46.2753C38.3233 47.2789 34.6172 45.9744 30.6203 42.5333C30.1478 42.1256 29.6867 41.705 29.2376 41.2717C30.7872 39.5763 32.3358 37.6053 33.8471 35.4162C36.5056 35.1802 39.0171 34.7943 41.2947 34.2675C41.4068 34.7203 41.5065 35.1643 41.5924 35.5985ZM18.7524 46.1019C17.0593 46.7 15.7108 46.7172 14.8956 46.2469C13.161 45.2461 12.4399 41.3822 13.4235 36.1994C13.5404 35.5869 13.6743 34.9778 13.825 34.3728C16.0775 34.8714 18.5707 35.2299 21.2354 35.4461C22.7571 37.5881 24.3503 39.5569 25.956 41.281C25.6148 41.6113 25.2654 41.9332 24.9084 42.2463C22.7747 44.1122 20.6367 45.4361 18.7524 46.1019ZM10.8205 31.1079C8.13905 30.1908 5.92461 28.9992 4.40679 27.6987C3.04276 26.5302 2.35431 25.3699 2.35431 24.4286C2.35431 22.4252 5.33948 19.8699 10.3185 18.1332C10.9227 17.9226 11.5551 17.7238 12.2114 17.5372C12.8996 19.7766 13.8022 22.1181 14.8915 24.4858C13.788 26.8885 12.8725 29.2674 12.1776 31.5332C11.7218 31.4026 11.2693 31.2607 10.8205 31.1079ZM13.4794 12.9994C12.4459 7.71531 13.1322 3.72934 14.8595 2.72892C16.6991 1.66338 20.7671 3.1826 25.0549 6.9917C25.3345 7.24065 25.6095 7.49465 25.88 7.75357C24.2822 9.47007 22.7036 11.4243 21.1954 13.5536C18.6092 13.7935 16.1335 14.1786 13.8574 14.6946C13.7172 14.1329 13.5911 13.5677 13.4794 12.9996V12.9994ZM37.1998 18.8596C36.6622 17.9305 36.1047 17.0131 35.5276 16.1081C37.2821 16.3301 38.9632 16.6247 40.5418 16.9849C40.0679 18.5048 39.4772 20.0936 38.7819 21.7227C38.2736 20.7579 37.7462 19.8033 37.1998 18.8596ZM27.5267 9.43332C28.6101 10.6078 29.6954 11.919 30.7627 13.3417C28.5975 13.2394 26.4286 13.239 24.2633 13.3404C25.3318 11.9308 26.4262 10.6214 27.5267 9.43332ZM17.7914 18.8757C17.2519 19.8118 16.7343 20.7604 16.239 21.7207C15.555 20.0975 14.9697 18.5013 14.4918 16.96C16.0607 16.6088 17.7338 16.3217 19.4772 16.1038C18.8937 17.0143 18.3316 17.9385 17.7914 18.8755V18.8757ZM19.5273 32.9207C17.7261 32.7195 16.0278 32.4472 14.4593 32.1055C14.9448 30.5366 15.543 28.9065 16.2418 27.2485C16.739 28.2095 17.2588 29.1587 17.8006 30.0952C18.3578 31.058 18.9348 32.001 19.5273 32.9207ZM27.5915 39.5894C26.478 38.3876 25.3674 37.0579 24.2829 35.6279C25.3358 35.6692 26.4092 35.6902 27.5002 35.6902C28.6211 35.6902 29.7291 35.6651 30.8196 35.6165C29.7488 37.0723 28.6677 38.4039 27.5915 39.5894ZM38.804 27.1638C39.5391 28.8401 40.1586 30.4616 40.6505 32.0036C39.0562 32.3677 37.3347 32.6608 35.5209 32.8785C36.1021 31.9567 36.665 31.0233 37.2091 30.0791C37.7623 29.1193 38.2941 28.1473 38.804 27.1638ZM35.1742 28.9048C34.3412 30.3525 33.4614 31.7728 32.5362 33.1633C30.8602 33.2821 29.1804 33.341 27.5002 33.3402C25.7889 33.3402 24.1243 33.2869 22.5214 33.1828C21.5721 31.7955 20.6754 30.3728 19.8336 28.9177H19.8338C18.9959 27.4703 18.2132 25.9916 17.4874 24.4847C18.2113 22.9775 18.9916 21.4981 19.8267 20.0496L19.8265 20.0498C20.6612 18.6009 21.5507 17.1842 22.4929 15.8029C24.1282 15.6791 25.8052 15.6146 27.5 15.6146H27.5002C29.2028 15.6146 30.8819 15.6797 32.5168 15.8044C33.4495 17.1837 34.3333 18.5954 35.1665 20.0371C36.0043 21.4824 36.7949 22.9546 37.5371 24.4514C36.8026 25.9635 36.0144 27.4489 35.1742 28.9048ZM40.0203 2.65886C41.8616 3.72138 42.5777 8.00609 41.4208 13.625C41.3469 13.9834 41.264 14.3486 41.1738 14.7189C38.8921 14.1919 36.4147 13.8001 33.8209 13.5566C32.31 11.4039 30.7443 9.44665 29.1725 7.75228C29.5844 7.35501 30.0062 6.96805 30.4373 6.59175C34.4971 3.05709 38.2915 1.66145 40.0203 2.65886ZM27.5002 19.5157C30.2122 19.5157 32.4107 21.7153 32.4107 24.4286C32.4107 27.1419 30.2122 29.3415 27.5002 29.3415C24.7883 29.3415 22.5898 27.1419 22.5898 24.4286C22.5898 21.7153 24.7883 19.5157 27.5002 19.5157Z" fill="#00D8FF"/>
</svg>
