<svg width="63" height="50" viewBox="0 0 63 50" fill="none" xmlns="http://www.w3.org/2000/svg">
<g clip-path="url(#clip0)">
<path d="M30.8887 44.1404C30.6836 44.1404 30.4785 44.0818 30.293 43.9842L28.418 42.8709C28.1348 42.7146 28.2715 42.6561 28.3691 42.6268C28.7402 42.4998 28.8184 42.4705 29.2188 42.2361C29.2578 42.2166 29.3164 42.2264 29.3555 42.2459L30.8008 43.1053C30.8496 43.1346 30.9277 43.1346 30.9766 43.1053L36.6211 39.8436C36.6699 39.8143 36.709 39.7557 36.709 39.6873V33.1736C36.709 33.1053 36.6797 33.0467 36.6211 33.0174L30.9766 29.7654C30.9277 29.7361 30.8594 29.7361 30.8008 29.7654L25.1562 33.0174C25.0977 33.0467 25.0684 33.115 25.0684 33.1736V39.6873C25.0684 39.7459 25.1074 39.8045 25.1562 39.8338L26.6992 40.7225C27.5391 41.1424 28.0566 40.6443 28.0566 40.1561V33.7205C28.0566 33.6326 28.125 33.5545 28.2227 33.5545H28.9355C29.0234 33.5545 29.1016 33.6228 29.1016 33.7205V40.1561C29.1016 41.2791 28.4961 41.9139 27.4316 41.9139C27.1094 41.9139 26.8457 41.9139 26.1328 41.5623L24.6484 40.7127C24.2871 40.4978 24.0527 40.1072 24.0527 39.6873V33.1736C24.0527 32.7537 24.2773 32.3533 24.6484 32.1482L30.293 28.8865C30.6543 28.6814 31.123 28.6814 31.4746 28.8865L37.1191 32.1482C37.4805 32.3631 37.7148 32.7537 37.7148 33.1736V39.6873C37.7148 40.1072 37.4902 40.5076 37.1191 40.7127L31.4746 43.9744C31.3086 44.0818 31.1035 44.1404 30.8887 44.1404ZM35.4492 37.7146C35.4492 36.4939 34.6289 36.1717 32.8906 35.9373C31.1328 35.7029 30.957 35.5857 30.957 35.1756C30.957 34.8338 31.1035 34.3846 32.4023 34.3846C33.5645 34.3846 33.9941 34.6385 34.1699 35.4197C34.1895 35.4979 34.248 35.5467 34.3262 35.5467H35.0586C35.1074 35.5467 35.1465 35.5271 35.1758 35.4978C35.2051 35.4588 35.2246 35.4197 35.2148 35.3709C35.0977 34.0232 34.209 33.3982 32.4023 33.3982C30.791 33.3982 29.834 34.0818 29.834 35.2146C29.834 36.4549 30.791 36.7869 32.334 36.9432C34.1797 37.1287 34.3262 37.3924 34.3262 37.7537C34.3262 38.3885 33.8184 38.6521 32.627 38.6521C31.1328 38.6521 30.8008 38.2811 30.6934 37.5389C30.6836 37.4607 30.6152 37.4021 30.5273 37.4021H29.7949C29.707 37.4021 29.6289 37.4705 29.6289 37.5682C29.6289 38.5154 30.1465 39.6482 32.6172 39.6482C34.4238 39.6482 35.4492 38.9451 35.4492 37.7146ZM40.7715 32.8221C40.7715 33.4178 40.2832 33.9061 39.6875 33.9061C39.0918 33.9061 38.6035 33.4178 38.6035 32.8221C38.6035 32.2068 39.1113 31.7381 39.6875 31.7381C40.2734 31.7283 40.7715 32.2068 40.7715 32.8221ZM40.5957 32.8221C40.5957 32.3143 40.1855 31.9139 39.6777 31.9139C39.1797 31.9139 38.7695 32.3143 38.7695 32.8221C38.7695 33.3299 39.1797 33.74 39.6777 33.74C40.1855 33.7303 40.5957 33.3201 40.5957 32.8221ZM40.1562 33.4275H39.9023C39.8926 33.3689 39.8535 33.0564 39.8535 33.0467C39.834 32.9783 39.8145 32.9393 39.7266 32.9393H39.5117V33.4275H39.2773V32.2068H39.6973C39.8438 32.2068 40.127 32.2068 40.127 32.5291C40.127 32.7537 39.9805 32.8025 39.8926 32.8318C40.0586 32.8416 40.0684 32.949 40.0977 33.1053C40.1074 33.2029 40.127 33.3689 40.1562 33.4275ZM39.8828 32.5682C39.8828 32.4021 39.7656 32.4021 39.707 32.4021H39.5117V32.7439H39.6973C39.8535 32.7439 39.8828 32.6365 39.8828 32.5682ZM13.4082 18.6521C13.4082 18.3885 13.2715 18.1541 13.0469 18.0271L7.06055 14.5799C6.96289 14.5213 6.8457 14.492 6.72852 14.4822H6.66992C6.55273 14.4822 6.44531 14.5213 6.33789 14.5799L0.361328 18.0271C0.136719 18.1541 0 18.3982 0 18.6521L0.00976562 27.9295C0.00976562 28.0564 0.078125 28.1736 0.185547 28.242C0.292969 28.3104 0.429688 28.3104 0.546875 28.242L4.10156 26.201C4.32617 26.0643 4.46289 25.8299 4.46289 25.576V21.24C4.46289 20.9861 4.59961 20.742 4.82422 20.615L6.33789 19.7459C6.45508 19.6775 6.57227 19.6482 6.69922 19.6482C6.82617 19.6482 6.95313 19.6775 7.06055 19.7459L8.57422 20.615C8.79883 20.742 8.93555 20.9861 8.93555 21.24V25.576C8.93555 25.8299 9.07227 26.074 9.29688 26.201L12.8516 28.242C12.959 28.3104 13.1055 28.3104 13.2129 28.242C13.3203 28.1834 13.3887 28.0564 13.3887 27.9295L13.4082 18.6521ZM46.1426 8.52519V25.7518C46.1426 26.0057 46.0059 26.2498 45.7812 26.3768L39.7949 29.8338C39.5703 29.9607 39.2969 29.9607 39.0723 29.8338L33.0859 26.3768C32.8613 26.2498 32.7246 26.0057 32.7246 25.7518V18.8377C32.7246 18.5838 32.8613 18.3396 33.0859 18.2127L39.0723 14.7557C39.2969 14.6287 39.5703 14.6287 39.7949 14.7557L41.2891 15.615C41.4551 15.7127 41.6699 15.5857 41.6699 15.4002V6.22051C41.6699 5.94707 41.9629 5.77129 42.207 5.90801L45.7715 7.90019C45.9961 8.01738 46.1426 8.26152 46.1426 8.52519ZM41.6504 21.1131C41.6504 21.0447 41.6113 20.9861 41.5625 20.9568L39.5117 19.7654C39.4531 19.7361 39.3848 19.7361 39.3262 19.7654L37.2754 20.9568C37.2168 20.9861 37.1875 21.0447 37.1875 21.1131V23.4861C37.1875 23.5545 37.2266 23.6131 37.2754 23.6424L39.3262 24.824C39.3848 24.8533 39.4531 24.8533 39.502 24.824L41.5527 23.6424C41.6113 23.6131 41.6406 23.5545 41.6406 23.4861V21.1131H41.6504ZM62.1387 21.0447C62.3633 20.9178 62.5 20.6736 62.5 20.4197V18.7498C62.5 18.4959 62.3633 18.2518 62.1387 18.1248L56.1914 14.6678C55.9668 14.5408 55.6934 14.5408 55.4688 14.6678L49.4824 18.1248C49.2578 18.2518 49.1211 18.4959 49.1211 18.7498V25.6639C49.1211 25.9275 49.2578 26.1619 49.4824 26.2889L55.4297 29.6775C55.6445 29.8045 55.918 29.8045 56.1426 29.6775L59.7363 27.6756C59.9805 27.5389 59.9805 27.1873 59.7363 27.0506L53.7109 23.5936C53.5938 23.5252 53.5254 23.408 53.5254 23.2811V21.1131C53.5254 20.9861 53.5938 20.8689 53.7109 20.8006L55.5859 19.7166C55.6934 19.6482 55.8398 19.6482 55.9473 19.7166L57.8223 20.8006C57.9297 20.8689 58.0078 20.9861 58.0078 21.1131V22.8123C58.0078 23.0857 58.3105 23.2615 58.5547 23.1248L62.1387 21.0447ZM54.5898 21.3865C54.5508 21.4158 54.5215 21.4549 54.5215 21.5037V22.8318C54.5215 22.8807 54.5508 22.9295 54.5898 22.949L55.7422 23.6131C55.7812 23.6424 55.8398 23.6424 55.8789 23.6131L57.0312 22.949C57.0703 22.9197 57.0996 22.8807 57.0996 22.8318V21.5037C57.0996 21.4549 57.0703 21.4061 57.0312 21.3865L55.8789 20.7225C55.8398 20.6932 55.7812 20.6932 55.7422 20.7225L54.5898 21.3865ZM29.7656 25.6346V18.7596C29.7656 18.5057 29.6094 18.2615 29.3848 18.1346L23.418 14.6971C23.2129 14.5799 22.9297 14.5603 22.6953 14.6971L16.7285 18.1346C16.5039 18.2615 16.3477 18.4959 16.3477 18.7596V25.6346C16.3477 25.908 16.5332 26.1424 16.7383 26.2596L22.7148 29.6971C22.9492 29.8338 23.2227 29.824 23.4375 29.6971L29.3945 26.2596C29.5703 26.1619 29.6973 25.9959 29.7461 25.8006C29.7559 25.7518 29.7656 25.6932 29.7656 25.6346ZM22.5098 13.4373L22.4316 13.4861H22.5391L22.5098 13.4373ZM29.9512 26.1521L29.9121 26.0838V26.1717L29.9512 26.1521Z" fill="#007676"/>
</g>
<defs>
<clipPath id="clip0">
<rect width="62.5" height="50" fill="white"/>
</clipPath>
</defs>
</svg>
